<?xml version="1.0" encoding="UTF-8"?>
<svg id="Layer_3" data-name="Layer 3" xmlns="http://www.w3.org/2000/svg" viewBox="0 0 500 500">
  <defs>
    <style>
      .cls-1 {
        fill: #8693fd;
      }

      .cls-2 {
        fill: #fdd86d;
      }
    </style>
  </defs>
  <path class="cls-1" d="M262.73,67.12v112.08c0,6.89-5.58,12.47-12.47,12.47h0c-6.89,0-12.47-5.58-12.47-12.47v-112.56"/>
  <path class="cls-1" d="M402.27,349.49l-96.23-57.46c-5.91-3.53-7.84-11.19-4.31-17.1h0c3.53-5.91,11.19-7.84,17.1-4.31l96.65,57.71"/>
  <path class="cls-1" d="M84.77,328.23l97.32-55.59c5.98-3.42,13.6-1.34,17.01,4.64h0c3.42,5.98,1.34,13.6-4.64,17.01l-97.74,55.83"/>
  <polygon class="cls-1" points="410.41 329.51 410.41 163.11 435.35 163.86 435.35 329.51 410.41 329.51"/>
  <polygon class="cls-1" points="66.65 329.51 66.65 163.11 91.59 163.86 91.59 329.51 66.65 329.51"/>
  <polygon class="cls-1" points="76.21 139.88 220.54 57.07 232.3 79.08 88.63 161.52 76.21 139.88"/>
  <polygon class="cls-1" points="422.88 138.33 278.55 55.51 266.8 77.52 410.47 159.96 422.88 138.33"/>
  <polygon class="cls-1" points="422.88 360.34 278.55 443.15 266.8 421.15 410.47 338.71 422.88 360.34"/>
  <polygon class="cls-1" points="79.12 360.34 223.45 443.15 235.2 421.15 91.53 338.71 79.12 360.34"/>
  <circle class="cls-2" cx="249.77" cy="249.56" r="48.69"/>
  <circle class="cls-1" cx="250.26" cy="55.51" r="48.69"/>
  <circle class="cls-1" cx="77.85" cy="154.9" r="48.69"/>
  <circle class="cls-1" cx="422.88" cy="154.9" r="48.69"/>
  <circle class="cls-1" cx="422.88" cy="344.59" r="48.69"/>
  <circle class="cls-1" cx="79.12" cy="344.59" r="48.69"/>
  <circle class="cls-1" cx="250.26" cy="443.61" r="48.69"/>
</svg>